<svg xmlns="http://www.w3.org/2000/svg" viewBox="0 0 120 120" width="120" height="120"><line x1="44" y1="112" x2="64" y2="112" stroke="#cfcdc4" stroke-width="2.6" stroke-linecap="round"></line><line x1="50" y1="112" x2="54" y2="74" stroke="#2c2c2a" stroke-width="3.4" stroke-linecap="round"></line><line x1="57" y1="112" x2="55" y2="74" stroke="#2c2c2a" stroke-width="3.4" stroke-linecap="round"></line><line x1="54" y1="74" x2="54" y2="46" stroke="#2c2c2a" stroke-width="3.4" stroke-linecap="round"></line><circle cx="54" cy="36" r="7.5" fill="none" stroke="#2c2c2a" stroke-width="3.4"></circle><line x1="54" y1="48" x2="44" y2="40" stroke="#2c2c2a" stroke-width="3.4" stroke-linecap="round"></line><line x1="44" y1="40" x2="42" y2="24" stroke="#2c2c2a" stroke-width="3.4" stroke-linecap="round"></line><line x1="54" y1="48" x2="64" y2="40" stroke="#2c2c2a" stroke-width="3.4" stroke-linecap="round"></line><line x1="64" y1="40" x2="66" y2="24" stroke="#2c2c2a" stroke-width="3.4" stroke-linecap="round"></line><line x1="34" y1="22" x2="50" y2="22" stroke="#0f6e56" stroke-width="4" stroke-linecap="round"></line><rect x="31" y="17" width="4.5" height="10" rx="1.5" fill="#0f6e56"></rect><rect x="48.5" y="17" width="4.5" height="10" rx="1.5" fill="#0f6e56"></rect><line x1="58" y1="22" x2="74" y2="22" stroke="#0f6e56" stroke-width="4" stroke-linecap="round"></line><rect x="55" y="17" width="4.5" height="10" rx="1.5" fill="#0f6e56"></rect><rect x="72.5" y="17" width="4.5" height="10" rx="1.5" fill="#0f6e56"></rect></svg>