<svg xmlns="http://www.w3.org/2000/svg" viewBox="0 0 120 120" width="120" height="120"><line x1="16" y1="112" x2="104" y2="112" stroke="#cfcdc4" stroke-width="2.6" stroke-linecap="round"></line><line x1="54" y1="66" x2="50" y2="88" stroke="#2c2c2a" stroke-width="3.4" stroke-linecap="round"></line><line x1="50" y1="88" x2="46" y2="112" stroke="#2c2c2a" stroke-width="3.4" stroke-linecap="round"></line><line x1="54" y1="66" x2="78" y2="96" stroke="#2c2c2a" stroke-width="3.4" stroke-linecap="round"></line><line x1="78" y1="96" x2="92" y2="112" stroke="#2c2c2a" stroke-width="3.4" stroke-linecap="round"></line><line x1="54" y1="66" x2="54" y2="44" stroke="#2c2c2a" stroke-width="3.4" stroke-linecap="round"></line><circle cx="54" cy="34" r="7.5" fill="none" stroke="#2c2c2a" stroke-width="3.4"></circle><line x1="54" y1="46" x2="44" y2="66" stroke="#2c2c2a" stroke-width="3.4" stroke-linecap="round"></line><line x1="36" y1="68" x2="52" y2="68" stroke="#0f6e56" stroke-width="4" stroke-linecap="round"></line><rect x="33" y="63" width="4.5" height="10" rx="1.5" fill="#0f6e56"></rect><rect x="50.5" y="63" width="4.5" height="10" rx="1.5" fill="#0f6e56"></rect><line x1="54" y1="46" x2="64" y2="66" stroke="#2c2c2a" stroke-width="3.4" stroke-linecap="round"></line><line x1="56" y1="68" x2="72" y2="68" stroke="#0f6e56" stroke-width="4" stroke-linecap="round"></line><rect x="53" y="63" width="4.5" height="10" rx="1.5" fill="#0f6e56"></rect><rect x="70.5" y="63" width="4.5" height="10" rx="1.5" fill="#0f6e56"></rect></svg>