<svg xmlns="http://www.w3.org/2000/svg" viewBox="0 0 120 120" width="120" height="120"><line x1="20" y1="112" x2="96" y2="112" stroke="#cfcdc4" stroke-width="2.6" stroke-linecap="round"></line><line x1="40" y1="100" x2="78" y2="60" stroke="#cfcdc4" stroke-width="9" stroke-linecap="round"></line><line x1="40" y1="100" x2="40" y2="112" stroke="#2c2c2a" stroke-width="3.4" stroke-linecap="round"></line><line x1="40" y1="100" x2="74" y2="64" stroke="#2c2c2a" stroke-width="3.4" stroke-linecap="round"></line><circle cx="80" cy="58" r="7.5" fill="none" stroke="#2c2c2a" stroke-width="3.4"></circle><line x1="40" y1="100" x2="34" y2="112" stroke="#2c2c2a" stroke-width="3.4" stroke-linecap="round"></line><line x1="74" y1="64" x2="80" y2="74" stroke="#2c2c2a" stroke-width="3.4" stroke-linecap="round"></line><line x1="80" y1="74" x2="74" y2="86" stroke="#2c2c2a" stroke-width="3.4" stroke-linecap="round"></line><line x1="66" y1="88" x2="82" y2="88" stroke="#0f6e56" stroke-width="4" stroke-linecap="round"></line><rect x="63" y="83" width="4.5" height="10" rx="1.5" fill="#0f6e56"></rect><rect x="80.5" y="83" width="4.5" height="10" rx="1.5" fill="#0f6e56"></rect><line x1="70" y1="66" x2="76" y2="76" stroke="#2c2c2a" stroke-width="3.4" stroke-linecap="round"></line><line x1="76" y1="76" x2="70" y2="88" stroke="#2c2c2a" stroke-width="3.4" stroke-linecap="round"></line><line x1="62" y1="90" x2="78" y2="90" stroke="#0f6e56" stroke-width="4" stroke-linecap="round"></line><rect x="59" y="85" width="4.5" height="10" rx="1.5" fill="#0f6e56"></rect><rect x="76.5" y="85" width="4.5" height="10" rx="1.5" fill="#0f6e56"></rect></svg>