<svg xmlns="http://www.w3.org/2000/svg" viewBox="0 0 120 120" width="120" height="120"><line x1="18" y1="112" x2="104" y2="112" stroke="#cfcdc4" stroke-width="2.6" stroke-linecap="round"></line><rect x="60" y="82" width="40" height="30" fill="none" stroke="#cfcdc4" stroke-width="2.6"></rect><line x1="50" y1="64" x2="64" y2="74" stroke="#2c2c2a" stroke-width="3.4" stroke-linecap="round"></line><line x1="64" y1="74" x2="72" y2="82" stroke="#2c2c2a" stroke-width="3.4" stroke-linecap="round"></line><line x1="50" y1="64" x2="44" y2="86" stroke="#2c2c2a" stroke-width="3.4" stroke-linecap="round"></line><line x1="44" y1="86" x2="40" y2="112" stroke="#2c2c2a" stroke-width="3.4" stroke-linecap="round"></line><line x1="50" y1="64" x2="50" y2="40" stroke="#2c2c2a" stroke-width="3.4" stroke-linecap="round"></line><circle cx="50" cy="30" r="7.5" fill="none" stroke="#2c2c2a" stroke-width="3.4"></circle><line x1="50" y1="44" x2="40" y2="64" stroke="#2c2c2a" stroke-width="3.4" stroke-linecap="round"></line><line x1="32" y1="66" x2="48" y2="66" stroke="#0f6e56" stroke-width="4" stroke-linecap="round"></line><rect x="29" y="61" width="4.5" height="10" rx="1.5" fill="#0f6e56"></rect><rect x="46.5" y="61" width="4.5" height="10" rx="1.5" fill="#0f6e56"></rect><line x1="50" y1="44" x2="60" y2="64" stroke="#2c2c2a" stroke-width="3.4" stroke-linecap="round"></line><line x1="52" y1="66" x2="68" y2="66" stroke="#0f6e56" stroke-width="4" stroke-linecap="round"></line><rect x="49" y="61" width="4.5" height="10" rx="1.5" fill="#0f6e56"></rect><rect x="66.5" y="61" width="4.5" height="10" rx="1.5" fill="#0f6e56"></rect></svg>